<?xml version="1.0" standalone="no"?>
<!DOCTYPE svg PUBLIC "-//W3C//DTD SVG 20010904//EN"
 "http://www.w3.org/TR/2001/REC-SVG-20010904/DTD/svg10.dtd">
<svg version="1.0" xmlns="http://www.w3.org/2000/svg"
 width="1300.000000pt" height="1300.000000pt" viewBox="0 0 1300.000000 1300.000000"
 preserveAspectRatio="xMidYMid meet">
<metadata>
Created by potrace 1.14, written by Peter Selinger 2001-2017
</metadata>
<g transform="translate(0.000000,1300.000000) scale(0.100000,-0.100000)"
fill="#000000" stroke="none">
<path d="M6426 10867 c-22 -34 -54 -84 -71 -112 -18 -27 -89 -143 -159 -257
l-127 -206 -59 -21 c-33 -11 -62 -16 -65 -11 -3 5 -1 11 5 15 24 15 99 205
116 293 5 25 -17 71 -41 86 -45 29 -83 18 -149 -41 -19 -18 -39 -33 -44 -33
-5 0 -17 -9 -27 -20 -10 -11 -23 -20 -29 -20 -7 0 -18 -9 -26 -20 -8 -11 -18
-20 -23 -20 -4 0 -34 -17 -65 -38 -31 -21 -78 -50 -103 -65 -46 -26 -47 -26
-70 -9 -22 16 -205 133 -247 157 -9 6 -51 32 -91 59 -41 26 -80 50 -87 53 -7
2 4 -48 27 -124 21 -70 51 -172 67 -225 l30 -97 -37 -16 c-20 -10 -54 -25 -76
-35 -79 -35 -364 -138 -555 -200 -107 -34 -204 -67 -215 -72 -11 -5 -30 -10
-43 -11 -12 0 -22 -4 -22 -7 0 -4 -6 -7 -12 -7 -14 0 -131 -39 -163 -54 -11
-5 -56 -22 -100 -38 -146 -53 -323 -136 -501 -235 l-82 -45 -27 42 c-33 50
-143 190 -182 232 -26 28 -115 108 -138 123 -178 123 -339 174 -535 173 -41
-1 -86 -3 -100 -6 -63 -12 -75 -15 -109 -25 -129 -40 -249 -142 -311 -266 -18
-38 -35 -73 -37 -79 -1 -5 -4 -19 -7 -30 -2 -11 -5 -20 -6 -20 -9 0 -26 -152
-24 -211 2 -52 5 -84 19 -174 2 -14 11 -44 19 -67 8 -24 13 -43 9 -43 -3 0 1
-7 8 -16 7 -9 14 -25 16 -35 6 -38 111 -224 151 -267 6 -7 12 -17 12 -21 0
-11 140 -154 182 -185 l38 -28 -38 -29 c-143 -109 -230 -191 -336 -315 -126
-148 -259 -370 -325 -544 -15 -41 -32 -84 -36 -95 -4 -11 -9 -24 -10 -30 -2
-5 -10 -35 -20 -65 -40 -133 -42 -139 -31 -133 8 5 8 3 0 -8 -13 -16 -40 -156
-51 -264 -13 -117 -9 -512 5 -538 2 -5 6 -36 8 -69 3 -33 7 -65 11 -71 3 -6 8
-30 10 -55 2 -25 9 -54 14 -64 6 -11 8 -22 5 -25 -3 -3 -1 -14 5 -25 6 -11 13
-32 15 -46 6 -33 69 -221 90 -271 9 -20 23 -52 32 -71 8 -19 16 -37 17 -40 0
-3 5 -14 11 -25 11 -21 11 -24 -1 -120 -4 -33 -9 -71 -10 -85 -1 -14 -6 -50
-10 -80 -4 -30 -9 -68 -10 -85 -2 -16 -6 -57 -10 -90 -3 -33 -7 -74 -9 -90 -1
-17 -5 -35 -9 -42 -4 -6 -3 -14 3 -18 6 -4 8 -10 5 -14 -10 -17 -31 -262 -50
-571 -3 -52 -8 -129 -10 -170 -5 -84 -12 -239 -21 -500 -9 -222 -8 -1377 0
-1655 8 -285 16 -533 22 -695 18 -498 33 -1059 38 -1340 1 -117 7 -193 14
-206 6 -12 26 -27 43 -33 23 -8 1323 -11 4700 -11 l4669 0 29 28 c35 32 36 41
56 327 20 304 27 1571 12 2220 -14 599 -18 834 -22 1310 -2 264 -7 561 -11
660 -4 99 -7 222 -8 272 -1 51 -3 93 -6 93 -3 0 -6 28 -8 63 -2 60 -9 164 -16
257 -2 25 -7 84 -11 132 -5 64 -3 96 7 118 7 16 16 30 20 30 5 0 8 6 8 14 0 8
4 16 8 18 15 6 168 288 157 288 -3 0 1 10 9 23 25 37 120 307 109 307 -3 0 0
6 6 14 6 8 11 18 10 22 -1 5 0 12 1 17 1 4 4 12 5 17 1 6 4 11 5 13 1 1 4 11
5 22 2 11 11 56 20 100 9 44 19 98 21 120 2 22 7 67 11 100 10 74 10 434 0
495 -4 25 -9 63 -12 85 -5 45 -11 78 -19 115 -4 14 -9 39 -11 55 -3 17 -9 39
-12 50 -4 11 -7 25 -8 30 0 6 -9 37 -19 70 -10 33 -19 65 -20 70 -1 6 -7 20
-14 32 -7 12 -12 27 -12 34 0 18 -93 223 -105 231 -6 5 -6 8 0 8 7 0 7 3 0 8
-5 4 -23 32 -39 62 -28 52 -103 169 -115 180 -4 3 -26 32 -50 65 -47 64 -233
253 -290 295 -18 14 -47 36 -65 50 -17 14 -40 30 -51 36 -23 13 -25 26 -7 51
171 243 266 451 298 653 9 55 3 184 -10 250 -36 170 -171 342 -326 412 -108
50 -297 68 -431 42 -102 -20 -100 -19 -134 -33 -16 -7 -34 -14 -40 -15 -13 -3
-89 -40 -95 -46 -3 -3 -17 -12 -32 -20 -80 -45 -243 -203 -332 -322 -32 -43
-60 -78 -61 -78 -1 0 -36 22 -77 49 -218 144 -675 388 -740 395 -3 1 -10 4
-14 9 -4 4 -16 7 -26 7 -10 0 -18 5 -18 12 0 6 -3 8 -6 5 -4 -3 -16 -1 -28 5
-11 7 -25 13 -31 15 -13 3 -254 84 -280 93 -11 5 -40 13 -65 19 -52 13 -55 14
-175 42 -49 11 -90 21 -91 22 -2 1 12 25 29 53 18 28 43 82 56 121 21 62 23
74 12 101 -8 18 -27 37 -47 47 -32 15 -39 15 -104 -3 -39 -11 -70 -16 -70 -12
0 7 30 108 55 185 7 22 12 42 10 44 -4 4 -35 -16 -340 -211 -242 -155 -264
-166 -333 -174 -26 -3 -54 -7 -62 -9 -8 -3 -47 -7 -87 -10 l-72 -6 35 53 c40
59 94 169 94 192 0 8 4 17 9 20 4 3 12 25 16 48 5 24 10 50 11 58 15 80 15
142 0 166 -37 55 -103 52 -162 -9 -72 -74 -244 -198 -281 -201 -12 -1 -48 50
-125 174 -59 96 -111 176 -115 177 -4 2 -26 -25 -47 -60z"/>
</g>
</svg>
